<?xml version="1.0" encoding="UTF-8" standalone="no"?>
<!-- Created with Inkscape (http://www.inkscape.org/) -->

<svg
   xmlns:dc="http://purl.org/dc/elements/1.1/"
   xmlns:cc="http://creativecommons.org/ns#"
   xmlns:rdf="http://www.w3.org/1999/02/22-rdf-syntax-ns#"
   xmlns:svg="http://www.w3.org/2000/svg"
   xmlns="http://www.w3.org/2000/svg"
   xmlns:sodipodi="http://sodipodi.sourceforge.net/DTD/sodipodi-0.dtd"
   xmlns:inkscape="http://www.inkscape.org/namespaces/inkscape"
   width="149.21817mm"
   height="118.51833mm"
   viewBox="0 0 528.7258 419.94682"
   id="svg2"
   version="1.1"
   inkscape:version="0.91 r13725"
   sodipodi:docname="ns-drawing.svg">
  <defs
     id="defs4">
    <inkscape:path-effect
       effect="spiro"
       id="path-effect3482"
       is_visible="true" />
    <inkscape:path-effect
       effect="spiro"
       id="path-effect3439"
       is_visible="true" />
  </defs>
  <sodipodi:namedview
     id="base"
     pagecolor="#ffffff"
     bordercolor="#666666"
     borderopacity="1.0"
     inkscape:pageopacity="0.0"
     inkscape:pageshadow="2"
     inkscape:zoom="0.70000001"
     inkscape:cx="156.77847"
     inkscape:cy="131.41753"
     inkscape:document-units="px"
     inkscape:current-layer="layer1"
     showgrid="false"
     inkscape:window-width="1920"
     inkscape:window-height="1017"
     inkscape:window-x="-8"
     inkscape:window-y="-8"
     inkscape:window-maximized="1"
     fit-margin-top="0"
     fit-margin-left="0"
     fit-margin-right="0"
     fit-margin-bottom="0" />
  <metadata
     id="metadata7">
    <rdf:RDF>
      <cc:Work
         rdf:about="">
        <dc:format>image/svg+xml</dc:format>
        <dc:type
           rdf:resource="http://purl.org/dc/dcmitype/StillImage" />
        <dc:title></dc:title>
      </cc:Work>
    </rdf:RDF>
  </metadata>
  <g
     inkscape:label="Layer 1"
     inkscape:groupmode="layer"
     id="layer1"
     transform="translate(-107.81658,-263.871)">
    <path
       style="fill:none;fill-rule:evenodd;stroke:#d40000;stroke-width:1px;stroke-linecap:butt;stroke-linejoin:miter;stroke-opacity:1"
       d="m 331.55802,649.4266 c -2.1061,2.16359 -3.90096,7.11501 -7.01564,10.78586 -3.05407,3.5994 -4.68944,6.01123 -7.13615,8.05343 -1.97639,1.70119 -3.43595,1.47204 -3.32075,5.58802 -0.29576,1.96976 -2.29616,2.55055 -4.10715,2.5 -1.90688,-0.28291 -3.30868,0.3812 -4.58421,0.85591 -2.82077,1.7969 -5.19961,1.1947 -7.89412,1.22384 -2.51258,-0.3462 -7.02698,-4.61758 -9.82143,-7.85714"
       id="path3520"
       inkscape:connector-curvature="0"
       sodipodi:nodetypes="cscccccc">
      <title
         id="title3522">Hohenrain</title>
    </path>
    <path
       style="fill:none;fill-rule:evenodd;stroke:#d40000;stroke-width:1px;stroke-linecap:butt;stroke-linejoin:miter;stroke-opacity:1"
       d="m 287.09822,669.77292 c -1.25,-1.86012 -2.41072,-3.09524 -3.61608,-4.64286 -1.4881,-1.99405 -3.125,-0.35714 -3.125,-0.35714 -3.33333,6.42857 -14.79167,18.92857 -20.71428,18.39285 0,0 -4.64286,0.80358 -8.57143,-1.33928 -1.60714,-1.0119 -2.76786,-1.84524 -5.35714,-1.69643 -3.75,-0.26786 -7.41071,0.17857 -11.25,-0.80357 -1.60714,0.0298 -3.21429,0.0595 -4.82143,0.0893 -2.88691,0.41666 -5.68452,0.65476 -7.32143,-1.42858 -1.24989,-1.60367 -2.81228,-2.98413 -3.74967,-4.81102 -1.45782,-2.26394 -3.00492,-3.63503 -5.17703,-5.05076 -1.5803,-1.37364 -2.66953,-3.10442 -3.53554,-4.92449 -2.01389,-4.12239 -5.50099,-3.60192 -8.5863,-3.66181"
       id="path3524"
       inkscape:connector-curvature="0"
       sodipodi:nodetypes="ccccccccccccc">
      <title
         id="title3530">Hatzenbach</title>
    </path>
    <path
       style="fill:none;fill-rule:evenodd;stroke:#d40000;stroke-width:1px;stroke-linecap:butt;stroke-linejoin:miter;stroke-opacity:1"
       d="m 200.67312,659.53913 c -6.26084,0.42094 -7.12368,-0.705 -7.92339,-3.72494 -1.35738,-6.27136 -0.88388,-6.67121 -4.92449,-9.34391"
       id="path3526"
       inkscape:connector-curvature="0"
       sodipodi:nodetypes="ccc">
      <title
         id="title3532">Hocheichen</title>
    </path>
    <path
       style="fill:none;fill-rule:evenodd;stroke:#d40000;stroke-width:1px;stroke-linecap:butt;stroke-linejoin:miter;stroke-opacity:1"
       d="M 187.19389,646.15461 C 167.24338,631.00232 165.41248,631.25486 154.17453,615.9763"
       id="path3528"
       inkscape:connector-curvature="0"
       sodipodi:nodetypes="cc">
      <title
         id="title3534">QuiddelbacherHohe</title>
    </path>
    <path
       style="fill:none;fill-rule:evenodd;stroke:#d40000;stroke-width:1px;stroke-linecap:butt;stroke-linejoin:miter;stroke-opacity:1"
       d="m 153.36222,615.20403 c -3.51015,-4.86651 -7.9042,-8.5966 -8.00508,-15.60968 -0.0947,-5.31119 1.8308,-8.85461 3.125,-13.66072 2.82344,-7.78972 3.5003,-15.7057 3.16701,-24.12676 -0.54717,-12.20601 -2.73583,-18.47737 -5.80838,-27.52665"
       id="path3536"
       inkscape:connector-curvature="0"
       sodipodi:nodetypes="ccccc">
      <title
         id="title3538">Flugplatz</title>
    </path>
    <path
       style="fill:none;fill-rule:evenodd;stroke:#d40000;stroke-width:1px;stroke-linecap:butt;stroke-linejoin:miter;stroke-opacity:1"
       d="m 145.35714,532.9872 c -3.31646,-8.24405 -6.89565,-15.68453 -10.26786,-22.94643 -4.70238,-9.82142 -6.81547,-10.71428 -11.87499,-13.83928 l -6.42858,-3.21429"
       id="path3540"
       inkscape:connector-curvature="0"
       sodipodi:nodetypes="cccc">
      <title
         id="title3542">Schwedenkreuz</title>
    </path>
    <path
       style="fill:none;fill-rule:evenodd;stroke:#d40000;stroke-width:1px;stroke-linecap:butt;stroke-linejoin:miter;stroke-opacity:1"
       d="m 115.71429,492.45149 c -5.11905,-1.81548 -7.91667,-4.07738 -7.32143,-8.39286 2.23214,-3.30357 5.35714,-3.92858 8.48214,-5.08929 2.79762,-0.625 7.02381,-3.21428 10.53571,-4.82142"
       id="path3544"
       inkscape:connector-curvature="0"
       sodipodi:nodetypes="cccc">
      <title
         id="title3546">Aremberg</title>
    </path>
    <path
       style="fill:none;fill-rule:evenodd;stroke:#d40000;stroke-width:1px;stroke-linecap:butt;stroke-linejoin:miter;stroke-opacity:1"
       d="m 128.41564,473.60793 c 2.01969,-0.52226 3.77152,-2.29451 4.98763,-3.97748 1.71609,-1.86216 4.77146,-3.8136 6.7554,-5.05076 2.10448,-0.83855 4.6554,-3.46281 6.31345,-5.99778 2.78426,-3.16694 6.3721,-6.24459 10.22779,-8.9651 5.51638,-3.95829 7.36122,-5.96313 9.49557,-9.28559 2.72562,-7.69993 6.59553,-7.77514 6.09866,-16.66271"
       id="path3548"
       inkscape:connector-curvature="0"
       sodipodi:nodetypes="ccccccc">
      <title
         id="title3550">Fuchsrohre</title>
    </path>
    <path
       style="fill:none;fill-rule:evenodd;stroke:#d40000;stroke-width:1px;stroke-linecap:butt;stroke-linejoin:miter;stroke-opacity:1"
       d="m 172.04161,422.65836 c -0.40248,-4.16053 0.89147,-8.23178 3.34613,-10.6066 1.13642,-0.77866 2.27284,-1.55732 3.40926,-2.33598 2.83672,-2.77606 1.83415,-3.05212 1.01015,-5.1139 -1.50192,-1.96676 -1.21812,-2.59424 0.31568,-4.29314 3.76858,-3.72027 7.53716,-7.44055 11.30574,-11.16082 4.22619,-4.28571 6.93453,-7.76786 10.26786,-12.05357 3.18452,-4.16667 5.11904,-6.36905 8.21428,-9.28572"
       id="path3552"
       inkscape:connector-curvature="0"
       sodipodi:nodetypes="cccccccc">
      <title
         id="title3554">AdenauerForst</title>
    </path>
    <path
       style="fill:none;fill-rule:evenodd;stroke:#d40000;stroke-width:1px;stroke-linecap:butt;stroke-linejoin:miter;stroke-opacity:1"
       d="m 210.80357,366.55863 c 3.75,-5.41667 5.89286,-10.92262 4.55357,-16.51786 -2.17262,-11.22024 -2.1131,-13.15476 -6.25,-12.5 -3.57143,0.625 -5,0.0893 -8.30357,-1.33928 0,0 -2.38095,-1.54762 -3.83928,-3.125"
       id="path3556"
       inkscape:connector-curvature="0"
       sodipodi:nodetypes="ccccc">
      <title
         id="title3558">Metzgesfeld</title>
    </path>
    <path
       style="fill:none;fill-rule:evenodd;stroke:#d40000;stroke-width:1px;stroke-linecap:butt;stroke-linejoin:miter;stroke-opacity:1"
       d="m 196.5053,332.31733 c -2.20406,-2.38379 -3.06883,-4.0533 -2.59431,-6.57102 0.6191,-2.23304 2.65195,-4.11827 5.21533,-4.35574 3.06109,-0.0969 5.0954,-1.35445 7.57614,-4.04061 2.77289,-2.77413 4.11721,-3.7179 4.16688,-6.31346 0.0701,-4.03813 1.3902,-5.71019 3.15673,-7.82868 2.82464,-2.90092 5.20734,-7.0014 8.47393,-8.70276 2.35929,-0.46361 4.46604,-1.24288 8.21429,1.07143 l 7.62627,6.04976"
       id="path3560"
       inkscape:connector-curvature="0"
       sodipodi:nodetypes="ccccccccc">
      <title
         id="title3562">Kallenhard</title>
    </path>
    <path
       style="fill:none;fill-rule:evenodd;stroke:#d40000;stroke-width:1px;stroke-linecap:butt;stroke-linejoin:miter;stroke-opacity:1"
       d="m 238.96421,302.26081 c 1.40297,1.13 4.60882,3.64075 5.99778,6.37658 0.84179,1.05224 1.10323,3.2652 2.52538,3.15673 1.37751,0.0511 2.04074,-1.54966 2.52539,-2.52538 1.06369,-1.40173 2.88631,-2.66953 4.79822,-3.53554 3.824,-0.70935 6.12404,-1.17477 11.86929,-1.89403 5.22933,-0.95537 10.23546,-0.39289 15.15229,0.88388"
       id="path3564"
       inkscape:connector-curvature="0"
       sodipodi:nodetypes="ccccccc">
      <title
         id="title3566">Wehrseifen</title>
    </path>
    <path
       style="fill:none;fill-rule:evenodd;stroke:#d40000;stroke-width:1px;stroke-linecap:butt;stroke-linejoin:miter;stroke-opacity:1"
       d="m 282.30607,304.84932 c 6.32904,1.94067 8.19604,0.20387 9.75429,-2.52538 1.87299,-3.26195 2.16762,-5.26121 2.14657,-8.08122 -0.21045,-6.12405 2.10448,-7.32361 3.91434,-8.33376 l 4.16688,-1.89404"
       id="path3568"
       inkscape:connector-curvature="0"
       sodipodi:nodetypes="ccccc">
      <title
         id="title3570">Exmuhle</title>
    </path>
    <path
       style="fill:none;fill-rule:evenodd;stroke:#d40000;stroke-width:1px;stroke-linecap:butt;stroke-linejoin:miter;stroke-opacity:1"
       d="m 302.94643,283.70149 c 7.1875,-2.70834 11.60715,-4.34524 18.4375,-6.07143 3.80952,-0.87797 13.33333,-0.95238 20.98214,-5.22321 l 8.97322,-6.33929 c 4.31548,-3.37798 9.43452,-1.66667 8.66071,4.77679 l 0.17856,24.19642 c 0.17857,7.35119 2.67858,10.95238 6.16072,15.89286 1.96428,2.47024 5,4.40476 8.03571,5.80357 4.46429,2.05357 8.92857,4.10715 13.39286,6.16072 4.88095,2.52976 8.06547,2.47024 13.03571,2.5"
       id="path3572"
       inkscape:connector-curvature="0"
       sodipodi:nodetypes="cccccccccc">
      <title
         id="title3574">Bergwerk</title>
    </path>
    <path
       style="fill:none;fill-rule:evenodd;stroke:#d40000;stroke-width:1px;stroke-linecap:butt;stroke-linejoin:miter;stroke-opacity:1"
       d="m 401.69643,325.13006 14.82143,0.80358 c 0,0 9.79509,0.89992 13.39286,1.16071 6.53785,0.47391 17.41071,4.82142 17.41071,4.82142 3.42262,1.4881 6.30953,4.76191 9.46429,7.14286"
       id="path3578"
       inkscape:connector-curvature="0"
       sodipodi:nodetypes="ccscc">
      <title
         id="title3580">Kesselchen</title>
    </path>
    <path
       style="fill:none;fill-rule:evenodd;stroke:#d40000;stroke-width:1px;stroke-linecap:butt;stroke-linejoin:miter;stroke-opacity:1"
       d="m 457.5991,339.69958 10.73287,5.42957 c 8.29167,3.70389 11.53258,2.10449 15.40483,0.12627 2.52538,-1.17851 5.05076,-2.98837 7.19734,-5.05076 l 5.93464,-5.42957 c 2.69374,-2.23075 8.41794,-5.34539 11.8693,-6.31345 l 10.10152,-1.13643 c 2.82001,0 4.75614,-0.75761 7.32361,-1.51522 3.29452,-1.20033 5.74083,-0.12387 7.07107,4.16687 0.57533,3.69631 1.01672,4.0444 -4.16688,7.07107 -5.90664,3.3353 -10.25077,8.50095 -14.77348,9.47018"
       id="path3582"
       inkscape:connector-curvature="0"
       sodipodi:nodetypes="ccccccccccc">
      <title
         id="title3584">Klostertal</title>
    </path>
    <path
       style="fill:none;fill-rule:evenodd;stroke:#d40000;stroke-width:1px;stroke-linecap:butt;stroke-linejoin:miter;stroke-opacity:1"
       d="m 513.4375,346.7372 c -4.33036,1.51786 -6.07143,3.61607 -5.75893,6.42857 1.02679,2.15774 3.21429,3.82441 5.89286,2.05358 2.54464,-1.97917 4.375,-5.02977 7.09822,-6.20536"
       id="path3586"
       inkscape:connector-curvature="0"
       sodipodi:nodetypes="cccc">
      <title
         id="title3588">Karusell</title>
    </path>
    <path
       style="fill:none;fill-rule:evenodd;stroke:#d40000;stroke-width:1px;stroke-linecap:butt;stroke-linejoin:miter;stroke-opacity:1"
       d="m 521.25,348.52292 14.01786,-8.03572 c 1.99405,-1.27976 3.18452,-2.20238 5.71428,-2.23214 6.69643,-0.35714 8.57669,-1.56195 13.85012,-6.50703 5.06982,-5.51488 5.90962,-6.10527 6.30748,-9.53671 0.0631,-4.31419 -1.01015,-7.74451 1.13642,-10.10153 6.39763,-6.81853 5.85047,-8.52316 11.61676,-7.26047 4.48254,1.43105 7.76554,2.54643 10.9854,2.52538"
       id="path3590"
       inkscape:connector-curvature="0"
       sodipodi:nodetypes="cccccccc">
      <title
         id="title3592">HoheAcht</title>
    </path>
    <path
       style="fill:none;fill-rule:evenodd;stroke:#d40000;stroke-width:1px;stroke-linecap:butt;stroke-linejoin:miter;stroke-opacity:1"
       d="m 622.00143,334.45942 c 0.10847,-2.23586 -1.47949,-4.6503 -3.15673,-6.43973 l -6.50285,-6.50285 c -1.475,-1.63005 -3.39642,-3.17081 -7.63928,-3.283 -3.11464,-0.63134 -4.20897,-1.45209 -6.31345,-3.21986 -1.6415,-1.43105 -3.40927,-4.06166 -4.9245,-4.29315 -1.38896,-0.14731 -2.55695,0.0842 -4.16688,-1.19955 -1.78908,-1.53338 -2.4754,-2.051 -3.59867,-2.08344"
       id="path3598"
       inkscape:connector-curvature="0"
       sodipodi:nodetypes="cccccccc">
      <title
         id="title4196">Wippermann</title>
    </path>
    <path
       style="fill:none;fill-rule:evenodd;stroke:#d40000;stroke-width:1px;stroke-linecap:butt;stroke-linejoin:miter;stroke-opacity:1"
       d="m 621.9383,335.1539 c 0.13742,2.28768 -0.23461,3.44551 -1.19956,6.43972 -0.90493,2.75688 -1.87299,6.46077 -1.76777,8.46003 0.1894,2.33598 0.12627,4.04061 4.16688,6.81853 2.75688,1.51523 6.01883,2.20971 9.02824,2.65165 2.31493,0.39985 3.49345,3.95643 3.72494,5.55584 0.25254,2.82001 0.18941,5.57688 -0.1894,8.83883 -0.7997,5.47166 -2.23075,6.83958 -6.9448,6.7554"
       id="path3600"
       inkscape:connector-curvature="0"
       sodipodi:nodetypes="cccccccc">
      <title
         id="title3602">Eschbach</title>
    </path>
    <path
       style="fill:none;fill-rule:evenodd;stroke:#d40000;stroke-width:1px;stroke-linecap:butt;stroke-linejoin:miter;stroke-opacity:1"
       d="m 627.99921,380.6739 c -4.14583,0.1894 -6.77644,-0.63135 -12.2481,-0.75762 -3.49344,0.0842 -4.58777,0.29463 -6.88166,3.4724 -1.95717,3.93539 -4.16688,7.49197 -7.00794,11.23795"
       id="path3604"
       inkscape:connector-curvature="0"
       sodipodi:nodetypes="cccc">
      <title
         id="title3606">Brunnchen</title>
    </path>
    <path
       style="fill:none;fill-rule:evenodd;stroke:#d40000;stroke-width:1px;stroke-linecap:butt;stroke-linejoin:miter;stroke-opacity:1"
       d="m 600.71429,396.1122 c -1.95357,2.99825 -2.64445,6.50158 -2.83025,10.13118 l -0.88388,16.16244 c -0.4209,5.13494 -2.79896,10.96436 -9.53332,11.17481 -3.61971,-0.12627 -7.5551,3.4724 -9.78585,6.12405 -5.40853,6.06092 -8.48108,12.69004 -13.00572,20.8344 -4.62987,6.71331 -5.14625,6.4549 -13.21601,12.12555 -5.81968,4.70012 -15.21078,7.43595 -30.85189,10.35035"
       id="path3608"
       inkscape:connector-curvature="0"
       sodipodi:nodetypes="cccccccc">
      <title
         id="title3610">Pflanzgarten</title>
    </path>
    <path
       style="fill:none;fill-rule:evenodd;stroke:#d40000;stroke-width:1px;stroke-linecap:butt;stroke-linejoin:miter;stroke-opacity:1"
       d="m 519.64286,482.9872 c -2.91667,0.3869 -7.08333,-0.29762 -10.625,-2.32143 -2.79762,-1.51786 -8.54167,-4.375 -12.94643,-1.875 l -7.58929,5.44643 c -1.75595,1.63691 -4.58333,3.3631 -2.32142,6.78572 2.14285,2.55952 4.73214,4.67262 7.76785,5.80357 3.30357,1.22024 5.17857,1.63691 8.83929,2.32143 5.05952,1.25 8.86905,2.94643 11.69643,6.16071"
       id="path3612"
       inkscape:connector-curvature="0"
       sodipodi:nodetypes="cccccccc">
      <title
         id="title3614">Schwalbenschwanz</title>
    </path>
    <path
       style="fill:none;fill-rule:evenodd;stroke:#d40000;stroke-width:1px;stroke-linecap:butt;stroke-linejoin:miter;stroke-opacity:1"
       d="m 515.1778,506.12221 c 4.8824,7.15525 3.19882,12.92154 -0.12627,18.05648 -4.54569,5.47166 -4.41942,4.62987 -16.28871,12.62691"
       id="path3616"
       inkscape:connector-curvature="0"
       sodipodi:nodetypes="ccc">
      <title
         id="title3618">Galgenkopf</title>
    </path>
    <path
       style="fill:none;fill-rule:evenodd;stroke:#d40000;stroke-width:1px;stroke-linecap:butt;stroke-linejoin:miter;stroke-opacity:1"
       d="m 498.03572,537.18363 c -10.36424,6.73461 -19.97086,14.22683 -31.09271,20.20383 -20.28723,11.95347 -23.52814,13.80541 -60.86169,35.86041 l -14.39467,9.09138"
       id="path3620"
       inkscape:connector-curvature="0"
       sodipodi:nodetypes="cccc">
      <title
         id="title3622">DottingerHohe</title>
    </path>
    <path
       style="fill:none;fill-rule:evenodd;stroke:#d40000;stroke-width:1px;stroke-linecap:butt;stroke-linejoin:miter;stroke-opacity:1"
       d="m 390.17142,602.97059 c -11.0275,6.77644 -22.05499,13.55288 -33.08249,20.32932 -4.29315,2.4412 -6.69227,4.5036 -10.60661,9.21764"
       id="path3624"
       inkscape:connector-curvature="0"
       sodipodi:nodetypes="ccc">
      <title
         id="title3628">Antoniusbuche</title>
    </path>
    <path
       style="fill:none;fill-rule:evenodd;stroke:#d40000;stroke-width:1px;stroke-linecap:butt;stroke-linejoin:miter;stroke-opacity:1"
       d="m 346.11118,633.20886 c -4.71405,5.05076 -8.33631,10.01223 -14.18678,15.82061"
       id="path3626"
       inkscape:connector-curvature="0"
       sodipodi:nodetypes="cc" />
  </g>
</svg>
