<svg id="svg2" viewBox="0 0 834.99749 264.08819">
	<g id="layer1" transform="translate(56.858 -207.6)" stroke="#000" fill="#fff">
		<path id="path4149" d="m-40.975 328.52c1.1293-17.951 98.223-26.559 206.43-36.429l131.42-76.43c8.9098-7.4317 47.619-4.7619 71.429-7.1429 64.416-1.1401 180.35-0.25997 186.43 6.4286l105.71 68.571 42.857 2.8572 35-19.286 25 2.1429c2.1503 5.5987 1.5227 12.46-6.4286 22.857 10.686-0.57772 7.7346 17.785 8.5714 28.571l-2.8571 45c14.344 1.6737 15.303-2.461 15 17.143 0.36107 14.661-8.8743 16.948-17.857 24.286l7.1429 10c-33.81 4.6249-66.861 8.7447-101.43 8.5714-1.089-56.416-23.644-62.829-33.571-70-17.076-9.0138-63.846-4.8277-82.143 5-16.862 10.561-26.188 47.301-28.571 68.571l-369.96 1.269c-9.4477-61.454-29.407-72.929-50.755-83.412-33.092-6.0663-59.044 3.5356-74.286 19.286-15.909 24.048-16.149 42.939-16.39 72.143l-48.61-1.4286c-17.204-0.4992-14.073-6.3276-7.8571-12.857l10-7.8571-2.8572-16.429c-18.608-0.46876-15.751-8.0086-16.429-14.286 0.88718-11.075-6.5594-18.11 18.571-14.286z" fill-rule="evenodd" stroke-width="1px"/>
		<ellipse id="path4155" rx="59.499" ry="61.086" cy="410.1" cx="77.915"/>
		<circle id="path4155-7" cx="594.78" cy="410.9" r="55.572" stroke-width=".92178"/>
	</g>
</svg>
